<svg width="16" height="16" viewBox="0 0 16 16" fill="none" xmlns="http://www.w3.org/2000/svg">
<path fill-rule="evenodd" clip-rule="evenodd" d="M15.8954 4.13136C15.9025 4.10126 15.9097 4.07113 15.9171 4.04099L15.9161 3.50899C15.9125 3.49656 15.9088 3.48392 15.9051 3.47112C15.89 3.4191 15.8741 3.36437 15.8621 3.30899C15.7828 2.93435 15.597 2.59058 15.3271 2.31899C14.7811 1.76633 14.2317 1.21699 13.6791 0.670994C13.3772 0.371498 12.9883 0.175137 12.5681 0.109994C12.5389 0.102759 12.5105 0.0930568 12.4831 0.0809937H11.9571C11.9234 0.0894117 11.8894 0.0976201 11.8554 0.105823C11.7845 0.122954 11.7137 0.140059 11.6461 0.158994C11.264 0.272083 10.9189 0.484672 10.6461 0.774994C8.47472 2.94766 6.30305 5.11999 4.13105 7.29199C3.07572 8.35533 2.01472 9.41533 0.948055 10.472C0.487781 10.9082 0.190355 11.4886 0.105055 12.117C0.0996162 12.1363 0.0915405 12.1548 0.0810547 12.172V15.296C0.164993 15.5963 0.3997 15.8311 0.700055 15.915H3.82305C3.83416 15.9119 3.84518 15.9085 3.85617 15.9051C3.88377 15.8967 3.91116 15.8883 3.93905 15.884C4.51443 15.7972 5.04608 15.5259 5.45405 15.111C5.63567 14.932 5.71663 14.6746 5.67014 14.4239C5.62365 14.1732 5.45576 13.9619 5.22205 13.86C4.93864 13.7218 4.59858 13.7806 4.37805 14.006C4.14425 14.2365 3.82937 14.3661 3.50105 14.367H1.62905C1.62905 14.1644 1.63075 13.9641 1.63243 13.7655C1.63575 13.373 1.63901 12.9868 1.62905 12.601C1.61192 12.2054 1.76822 11.8219 2.05705 11.551C4.72239 8.89033 7.38639 6.22666 10.0491 3.55999C10.0819 3.5193 10.1094 3.47461 10.1311 3.42699L12.5671 5.86499C12.517 5.8938 12.4698 5.92729 12.4261 5.96499C10.4274 7.95899 8.43005 9.95599 6.43405 11.956C6.2208 12.1473 6.13069 12.4408 6.19984 12.7189C6.269 12.997 6.4861 13.214 6.76415 13.2832C7.0422 13.3524 7.33571 13.2623 7.52705 13.049C10.1144 10.4617 12.7014 7.87399 15.2881 5.28599C15.5565 5.01969 15.7497 4.6871 15.8481 4.32199C15.865 4.25881 15.8802 4.19516 15.8954 4.13136ZM11.3056 2.32649L11.3051 2.32599V2.32699C11.3052 2.32683 11.3054 2.32666 11.3056 2.32649ZM13.6781 4.69899L11.3056 2.32649C11.3704 2.26122 11.4351 2.19236 11.5007 2.12244C11.6149 2.00075 11.7322 1.87584 11.8591 1.76099C11.972 1.66349 12.1192 1.61518 12.268 1.62682C12.4167 1.63847 12.5547 1.7091 12.6511 1.82299C13.0318 2.19979 13.4101 2.57914 13.7883 2.95849C13.8829 3.05334 13.9774 3.14819 14.0721 3.24299C14.094 3.26663 14.1163 3.28842 14.1383 3.30995C14.1675 3.33852 14.1963 3.36663 14.2231 3.39799C14.4222 3.61217 14.4222 3.94381 14.2231 4.15799C14.1014 4.29066 13.9712 4.41576 13.8455 4.53655C13.7884 4.59149 13.7321 4.64554 13.6781 4.69899Z" fill="#5C5F8A"/>
</svg>
