<svg width="20" height="23" viewBox="0 0 20 23" fill="none" xmlns="http://www.w3.org/2000/svg">
<path fill-rule="evenodd" clip-rule="evenodd" d="M1.09868 3.51308C1.09868 5.45331 2.67154 7.02617 4.61176 7.02617C6.55095 7.02368 8.12236 5.45228 8.12485 3.51308C8.12485 1.57286 6.55199 0 4.61176 0C2.67154 0 1.09868 1.57286 1.09868 3.51308ZM2.66401 2.70618C2.99032 1.9184 3.75906 1.40475 4.61175 1.40475C5.77546 1.40624 6.71847 2.34925 6.71996 3.51296C6.71996 4.36565 6.20631 5.13438 5.41853 5.46069C4.63074 5.78701 3.72396 5.60664 3.12102 5.00369C2.51807 4.40075 2.3377 3.49397 2.66401 2.70618Z" fill="#868686"/>
<path fill-rule="evenodd" clip-rule="evenodd" d="M0.438724 11.012C0.265876 10.942 0.127964 10.8061 0.0553833 10.6343C-0.0171972 10.4625 -0.0184877 10.2689 0.0517961 10.0962C0.805041 8.2401 2.60821 7.02588 4.6113 7.02588C6.61439 7.02588 8.41757 8.2401 9.17081 10.0962C9.31685 10.4559 9.14362 10.8659 8.78388 11.012C8.42415 11.158 8.01414 10.9848 7.86809 10.625C7.33026 9.29879 6.04201 8.43107 4.61085 8.43107C3.1797 8.43107 1.89145 9.29879 1.35361 10.625C1.2836 10.7979 1.14772 10.9358 0.975938 11.0084C0.804153 11.081 0.610557 11.0822 0.43782 11.012H0.438724Z" fill="#868686"/>
<path fill-rule="evenodd" clip-rule="evenodd" d="M11.4433 3.51308C11.4433 5.45331 13.0161 7.02617 14.9564 7.02617C16.8955 7.02368 18.4669 5.45228 18.4694 3.51308C18.4694 1.57286 16.8966 0 14.9564 0C13.0161 0 11.4433 1.57286 11.4433 3.51308ZM13.0086 2.70618C13.3349 1.9184 14.1036 1.40475 14.9563 1.40475C16.12 1.40624 17.063 2.34925 17.0645 3.51296C17.0645 4.36565 16.5509 5.13438 15.7631 5.46069C14.9753 5.78701 14.0685 5.60664 13.4656 5.00369C12.8626 4.40075 12.6823 3.49397 13.0086 2.70618Z" fill="#868686"/>
<path fill-rule="evenodd" clip-rule="evenodd" d="M10.7833 11.012C10.6105 10.942 10.4726 10.8061 10.4 10.6343C10.3274 10.4625 10.3261 10.2689 10.3964 10.0962C11.1496 8.2401 12.9528 7.02588 14.9559 7.02588C16.959 7.02588 18.7622 8.2401 19.5154 10.0962C19.6614 10.4559 19.4882 10.8659 19.1285 11.012C18.7687 11.158 18.3587 10.9848 18.2127 10.625C17.6748 9.29879 16.3866 8.43107 14.9554 8.43107C13.5243 8.43107 12.236 9.29879 11.6982 10.625C11.6282 10.7979 11.4923 10.9358 11.3205 11.0084C11.1487 11.081 10.9551 11.0822 10.7824 11.012H10.7833Z" fill="#868686"/>
<path fill-rule="evenodd" clip-rule="evenodd" d="M5.87306 15.4492C5.87306 17.3895 7.44592 18.9623 9.38615 18.9623C11.3253 18.9598 12.8967 17.3884 12.8992 15.4492C12.8992 13.509 11.3264 11.9362 9.38615 11.9362C7.44592 11.9362 5.87306 13.509 5.87306 15.4492ZM7.43841 14.6424C7.76472 13.8546 8.53346 13.341 9.38615 13.341C10.5499 13.3425 11.4929 14.2855 11.4944 15.4492C11.4944 16.3019 10.9807 17.0706 10.1929 17.3969C9.40514 17.7232 8.49836 17.5429 7.89542 16.9399C7.29247 16.337 7.1121 15.4302 7.43841 14.6424Z" fill="#868686"/>
<path fill-rule="evenodd" clip-rule="evenodd" d="M5.21315 22.9481C5.04031 22.8781 4.90239 22.7422 4.82981 22.5705C4.75723 22.3987 4.75594 22.2051 4.82623 22.0323C5.57947 20.1763 7.38264 18.962 9.38573 18.962C11.3888 18.962 13.192 20.1763 13.9452 22.0323C14.0913 22.3921 13.918 22.8021 13.5583 22.9481C13.1986 23.0942 12.7886 22.9209 12.6425 22.5612C12.1047 21.2349 10.8164 20.3672 9.38528 20.3672C7.95413 20.3672 6.66588 21.2349 6.12804 22.5612C6.05803 22.734 5.92215 22.872 5.75037 22.9445C5.57858 23.0171 5.38499 23.0184 5.21225 22.9481H5.21315Z" fill="#868686"/>
</svg>
