<svg width="14" height="14" viewBox="0 0 14 14" fill="none" xmlns="http://www.w3.org/2000/svg">
<path fill-rule="evenodd" clip-rule="evenodd" d="M6.58902 13.999H3.28002C1.46889 13.9968 0.00122743 12.5292 -0.000976562 10.718V3.28002C0.00122743 1.46889 1.46889 0.00122743 3.28002 -0.000976562H6.58902C8.40055 0.000676455 9.86882 1.4685 9.87102 3.28002V3.82702C9.87102 4.02245 9.76677 4.20303 9.59752 4.30074C9.42828 4.39845 9.21977 4.39845 9.05052 4.30074C8.88128 4.20303 8.77702 4.02245 8.77702 3.82702V3.28002C8.77537 2.07247 7.79658 1.09413 6.58902 1.09302H3.28002C2.07286 1.09468 1.09468 2.07286 1.09302 3.28002V10.718C1.09413 11.926 2.07308 12.9049 3.28102 12.906H6.58902C7.79697 12.9049 8.77592 11.926 8.77702 10.718V10.171C8.77702 9.9756 8.88128 9.79502 9.05052 9.69731C9.21977 9.5996 9.42828 9.5996 9.59752 9.69731C9.76677 9.79502 9.87102 9.9756 9.87102 10.171V10.718C9.86882 12.5295 8.40055 13.9974 6.58902 13.999Z" fill="#5C5F8A"/>
<path fill-rule="evenodd" clip-rule="evenodd" d="M11.3621 9.28695C11.4465 9.49138 11.6458 9.6248 11.867 9.62503L11.863 9.62303C12.0078 9.6231 12.1467 9.56553 12.249 9.46303L13.515 8.20103C13.8228 7.89426 13.9958 7.47758 13.9958 7.04303C13.9958 6.60848 13.8228 6.1918 13.515 5.88503L12.249 4.64203C12.0316 4.44395 11.6964 4.45327 11.4904 4.66312C11.2843 4.87297 11.281 5.20823 11.483 5.42203L12.747 6.66303C12.8487 6.76453 12.9059 6.90233 12.9059 7.04603C12.9059 7.18974 12.8487 7.32754 12.747 7.42903L11.481 8.69103C11.3245 8.84735 11.2776 9.08253 11.3621 9.28695ZM11.292 6.45303C11.5941 6.45303 11.839 6.69793 11.839 7.00003C11.839 7.30213 11.5941 7.54703 11.292 7.54703H5.38501C5.08291 7.54703 4.83801 7.30213 4.83801 7.00003C4.83801 6.69793 5.08291 6.45303 5.38501 6.45303H11.292Z" fill="#5C5F8A"/>
</svg>
