<svg width="20" height="26" viewBox="0 0 20 26" fill="none" xmlns="http://www.w3.org/2000/svg">
<path fill-rule="evenodd" clip-rule="evenodd" d="M17.9751 3.99235L19.8894 5.90658L19.8903 5.90626C19.9605 5.97667 19.9999 6.07199 20 6.1714V21.7152C19.9993 22.3353 19.4968 22.8377 18.8768 22.8384H16.4696C16.2744 22.8225 16.1242 22.6594 16.1242 22.4636C16.1242 22.2678 16.2744 22.1048 16.4696 22.0888H18.8768C19.083 22.0886 19.2502 21.9215 19.2504 21.7152V6.54684H15.577C15.3693 6.54684 15.201 6.37847 15.201 6.17077V2.49871H2.88105C2.67481 2.49888 2.50766 2.66603 2.50748 2.87228V4.89995C2.49151 5.0951 2.32846 5.24534 2.13266 5.24534C1.93686 5.24534 1.77381 5.0951 1.75784 4.89995V2.87228C1.75853 2.25223 2.261 1.74975 2.88105 1.74906H15.5764C15.6758 1.74915 15.7711 1.78859 15.8415 1.85875L17.2258 3.24271V1.13731C17.2255 0.923353 17.0521 0.749989 16.8381 0.749644H1.12353C0.917281 0.749816 0.75013 0.916967 0.749957 1.12321V19.9649C0.74979 20.0641 0.789022 20.1592 0.859021 20.2295C0.92902 20.2997 1.02405 20.3392 1.12321 20.3394H1.75784V6.644C1.77381 6.44885 1.93686 6.2986 2.13266 6.2986C2.32846 6.2986 2.49151 6.44885 2.50748 6.644V21.714C2.50766 21.9202 2.67481 22.0874 2.88105 22.0875H5.31739C5.45862 22.076 5.59436 22.1448 5.66852 22.2655C5.74269 22.3863 5.74269 22.5384 5.66852 22.6592C5.59436 22.7799 5.45862 22.8487 5.31739 22.8372H2.88105C2.26162 22.8361 1.75967 22.3343 1.75847 21.7149V21.0881H1.12321C0.503165 21.0874 0.00069086 20.5849 0 19.9649V1.12321C0.00069086 0.503165 0.503165 0.000690937 1.12321 0H16.8378C17.4657 0.000690937 17.9745 0.50948 17.9751 1.13731V3.99235ZM15.9497 3.02864V5.79593L18.7179 5.79656L15.9497 3.02864Z" fill="#868686"/>
<path fill-rule="evenodd" clip-rule="evenodd" d="M15.3715 8.76819H6.40488C6.20973 8.78416 6.05948 8.94721 6.05948 9.14301C6.05948 9.33881 6.20973 9.50186 6.40488 9.51783H15.3715C15.5666 9.50186 15.7168 9.33881 15.7168 9.14301C15.7168 8.94721 15.5666 8.78416 15.3715 8.76819V8.76819Z" fill="#868686"/>
<path fill-rule="evenodd" clip-rule="evenodd" d="M15.3715 10.9789H6.40488C6.26365 10.9674 6.12791 11.0362 6.05374 11.1569C5.97958 11.2777 5.97958 11.4298 6.05374 11.5506C6.12791 11.6713 6.26365 11.7401 6.40488 11.7286H15.3715C15.5666 11.7126 15.7168 11.5495 15.7168 11.3537C15.7168 11.1579 15.5666 10.9949 15.3715 10.9789Z" fill="#868686"/>
<path fill-rule="evenodd" clip-rule="evenodd" d="M15.3711 13.2326H13.5998C13.4586 13.221 13.3229 13.2898 13.2487 13.4106C13.1745 13.5313 13.1745 13.6835 13.2487 13.8042C13.3229 13.925 13.4586 13.9938 13.5998 13.9822H15.3711C15.5124 13.9938 15.6481 13.925 15.7223 13.8042C15.7964 13.6835 15.7964 13.5313 15.7223 13.4106C15.6481 13.2898 15.5124 13.221 15.3711 13.2326Z" fill="#868686"/>
<path fill-rule="evenodd" clip-rule="evenodd" d="M11.836 13.9828C12.0312 13.9669 12.1814 13.8038 12.1814 13.608C12.1814 13.4122 12.0312 13.2492 11.836 13.2332H6.40488C6.26365 13.2216 6.12791 13.2904 6.05374 13.4112C5.97958 13.5319 5.97958 13.6841 6.05374 13.8048C6.12791 13.9256 6.26365 13.9944 6.40488 13.9828H11.836Z" fill="#868686"/>
<path fill-rule="evenodd" clip-rule="evenodd" d="M12.2619 20.5193L11.2628 19.5202V23.1437C11.2469 23.3388 11.0838 23.4891 10.888 23.4891C10.6922 23.4891 10.5292 23.3388 10.5132 23.1437V19.5202L9.51408 20.5193C9.36475 20.6453 9.14379 20.636 9.00563 20.4978C8.86746 20.3596 8.85812 20.1387 8.98413 19.9894L10.6232 18.3503C10.7698 18.2047 11.0065 18.2047 11.1531 18.3503L12.7922 19.9894C12.9182 20.1387 12.9089 20.3596 12.7707 20.4978C12.6325 20.636 12.4116 20.6453 12.2623 20.5193H12.2619Z" fill="#868686"/>
<path fill-rule="evenodd" clip-rule="evenodd" d="M6.18079 20.8797C6.18068 18.28 8.28801 16.1724 10.8877 16.1722C13.4862 16.1752 15.5921 18.2809 15.5952 20.8795C15.5952 23.4791 13.4878 25.5866 10.8881 25.5867C8.28843 25.5867 6.18091 23.4793 6.18079 20.8797ZM6.93044 20.8795C6.93033 23.0651 8.70203 24.8371 10.8877 24.8373C13.0724 24.8348 14.843 23.0644 14.8456 20.8797C14.8456 18.694 13.0738 16.9222 10.8881 16.9221C8.70245 16.9221 6.93056 18.6938 6.93044 20.8795Z" fill="#868686"/>
<path fill-rule="evenodd" clip-rule="evenodd" d="M8.71272 5.29737H8.00069V4.58502C8.0006 4.52196 7.97545 4.46152 7.93078 4.41702C7.8861 4.37252 7.82556 4.34761 7.76251 4.34778H7.28771C7.15676 4.34795 7.05064 4.45407 7.05047 4.58502V5.29737H6.33843C6.20748 5.29754 6.10137 5.40366 6.10119 5.53461V6.00878C6.10137 6.13973 6.20748 6.24585 6.33843 6.24602H7.05047V6.95806C7.05064 7.08901 7.15676 7.19512 7.28771 7.1953H7.76251C7.89346 7.19512 7.99957 7.08901 7.99975 6.95806V6.24696H8.71178C8.84274 6.24679 8.94885 6.14067 8.94902 6.00972V5.53461C8.94885 5.40366 8.84274 5.29754 8.71178 5.29737H8.71272Z" fill="#868686"/>
</svg>
