<svg width="21" height="21" viewBox="0 0 21 21" fill="none" xmlns="http://www.w3.org/2000/svg">
<path opacity="0.5" fill-rule="evenodd" clip-rule="evenodd" d="M3.35971 10.4555C3.31792 5.63943 6.86284 1.54311 11.635 0.892994C11.2132 0.837726 10.7881 0.810022 10.3626 0.810059C7.81504 0.816643 5.37506 1.83796 3.58241 3.6481C1.78975 5.45824 0.792161 7.90801 0.810302 10.4555V19.9136L0.968219 19.7556C1.6192 19.1107 2.45157 18.6798 3.35403 18.5207L3.35971 10.4555Z" fill="#868686"/>
<path fill-rule="evenodd" clip-rule="evenodd" d="M0.000247161 19.9136C0.000246721 20.3605 0.362221 20.723 0.809149 20.7236V20.7225C1.0224 20.7213 1.22655 20.636 1.3772 20.485L1.53512 20.3271C2.62296 19.2262 4.29433 18.9472 5.68074 19.6352C7.11812 20.357 8.70535 20.7298 10.3137 20.7236H10.324C16.0194 20.7389 20.6616 16.1586 20.7227 10.4635C20.7561 7.69603 19.6786 5.03069 17.7312 3.06406C15.7838 1.09743 13.1291 -0.00625235 10.3615 2.66455e-05C7.59865 0.00691599 4.95242 1.11418 3.008 3.07693C1.06358 5.03968 -0.0187987 7.6962 0.000247161 10.459V19.9136ZM6.41577 18.1889C5.69832 17.8287 4.9066 17.6412 4.10381 17.6413L4.09926 17.6459C3.23323 17.6462 2.38088 17.8621 1.61916 18.2742V10.4601V10.4521C1.59186 8.11699 2.50679 5.86939 4.15721 4.21721C6.65836 1.68287 10.4478 0.921047 13.734 2.2919C17.0203 3.66275 19.145 6.89165 19.1037 10.4521C19.0305 15.2484 15.1242 19.0996 10.3274 19.1046H10.3194C8.96437 19.11 7.6271 18.7963 6.41577 18.1889Z" fill="#868686"/>
<path fill-rule="evenodd" clip-rule="evenodd" d="M10.4012 9.3501C9.99179 9.3501 9.62269 9.59673 9.46601 9.97498C9.30933 10.3532 9.39593 10.7886 9.68544 11.0781C9.97494 11.3676 10.4103 11.4543 10.7886 11.2976C11.1669 11.1409 11.4135 10.7718 11.4135 10.3624C11.4135 9.80375 10.961 9.35072 10.4024 9.3501H10.4012ZM7.93249 10.3624C7.93249 10.9215 7.47928 11.3747 6.92022 11.3747C6.36116 11.3747 5.90796 10.9215 5.90796 10.3624C5.90796 9.80337 6.36116 9.35016 6.92022 9.35016C7.47928 9.35016 7.93249 9.80337 7.93249 10.3624ZM12.87 10.3624C12.87 9.80331 13.3232 9.3501 13.8822 9.3501C14.4413 9.3501 14.8945 9.80331 14.8945 10.3624C14.8945 10.9214 14.4413 11.3746 13.8822 11.3746C13.3232 11.3746 12.87 10.9214 12.87 10.3624Z" fill="#868686"/>
</svg>
