<svg width="19" height="20" viewBox="0 0 19 20" fill="none" xmlns="http://www.w3.org/2000/svg">
<path fill-rule="evenodd" clip-rule="evenodd" d="M5.76295 7.08595H3.34995C1.67463 7.03717 0.336958 5.67389 0.319946 3.99795C0.32083 2.59888 1.26223 1.3752 2.61431 1.01563C3.96639 0.656057 5.39128 1.25044 6.08703 2.46425C6.78279 3.67806 6.57555 5.20798 5.58195 6.19295L5.94795 6.40995C6.08776 6.49396 6.15462 6.66072 6.11156 6.81804C6.06851 6.97537 5.92605 7.08484 5.76295 7.08595ZM4.73995 3.99795C4.73995 3.85104 4.62085 3.73195 4.47395 3.73195C4.32704 3.73195 4.20795 3.85104 4.20795 3.99795C4.20795 4.14486 4.32704 4.26395 4.47395 4.26395C4.62085 4.26395 4.73995 4.14486 4.73995 3.99795ZM3.40895 3.73195C3.55585 3.73195 3.67495 3.85104 3.67495 3.99795C3.67495 4.14486 3.55585 4.26395 3.40895 4.26395C3.26204 4.26395 3.14295 4.14486 3.14295 3.99795C3.14295 3.85143 3.26143 3.7325 3.40795 3.73195H3.40895ZM2.60995 3.99795C2.60995 3.85104 2.49085 3.73195 2.34395 3.73195H2.34295C2.19643 3.7325 2.07795 3.85143 2.07795 3.99795C2.07795 4.14486 2.19704 4.26395 2.34395 4.26395C2.49085 4.26395 2.60995 4.14486 2.60995 3.99795Z" fill="#5C5F8A"/>
<path fill-rule="evenodd" clip-rule="evenodd" d="M18.234 18.558H17.968V14.592C17.9669 13.551 17.3528 12.6084 16.401 12.187L15.001 11.587C15.3446 11.4783 15.6546 11.2831 15.901 11.02C16.2834 10.6138 16.4978 10.0779 16.501 9.51997C16.5007 9.01451 16.3199 8.52578 15.991 8.14197C15.5732 7.64523 15.3441 7.01703 15.344 6.36797V5.09397C15.344 2.78321 13.4707 0.909973 11.16 0.909973C8.8492 0.909973 6.97596 2.78321 6.97596 5.09397V6.32897C6.96537 7.00003 6.72059 7.64629 6.28396 8.15597C5.82369 8.7114 5.67153 9.46014 5.87849 10.1512C6.08546 10.8422 6.62415 11.384 7.31396 11.595L5.91996 12.201C4.94338 12.6101 4.30841 13.5661 4.30996 14.625V17.76C4.30996 17.9072 4.42927 18.0265 4.57646 18.0265C4.72364 18.0265 4.84296 17.9072 4.84296 17.76V14.624C4.84056 13.781 5.34383 13.0189 6.11996 12.69L7.86696 11.93V13.53H7.06696C6.84063 13.5304 6.6251 13.6268 6.47377 13.7951C6.32244 13.9634 6.24948 14.1879 6.27296 14.413L6.71196 18.554H0.585958C0.438774 18.554 0.319458 18.6733 0.319458 18.8205C0.319458 18.9677 0.438774 19.087 0.585958 19.087H18.234C18.3811 19.087 18.5005 18.9677 18.5005 18.8205C18.5005 18.6733 18.3811 18.554 18.234 18.554V18.558ZM14.804 5.13897C14.0511 5.23944 13.2884 5.04644 12.674 4.59997C12.5988 4.54174 12.4982 4.52805 12.4102 4.56406C12.3221 4.60007 12.26 4.68032 12.2472 4.77456C12.2343 4.86881 12.2728 4.96274 12.348 5.02097C12.7336 5.315 13.1808 5.51806 13.656 5.61497V7.06497C13.5312 7.3784 13.3272 7.65406 13.064 7.86497C12.9291 7.97617 12.7806 8.0696 12.622 8.14297C12.4878 7.88014 12.217 7.71533 11.922 7.71697H11.298C11.0124 7.70675 10.7441 7.85324 10.5984 8.09893C10.4526 8.34463 10.4526 8.65032 10.5984 8.89601C10.7441 9.14171 11.0124 9.28819 11.298 9.27797H11.922C12.2767 9.2774 12.5867 9.03807 12.677 8.69497C13.0127 8.52609 13.3272 8.31797 13.614 8.07497C13.4268 9.06038 12.566 9.77387 11.563 9.77497H10.695C9.54904 9.7673 8.62322 8.83791 8.61996 7.69197V5.63297C9.51786 5.49386 10.381 5.18466 11.163 4.72197C12.1447 4.13843 12.9743 3.33073 13.584 2.36497C14.3735 3.06907 14.8186 4.08118 14.804 5.13897ZM11.928 8.74297C12.0645 8.74297 12.1754 8.63255 12.176 8.49597C12.1773 8.42934 12.1518 8.36497 12.1051 8.31737C12.0585 8.26977 11.9946 8.24296 11.928 8.24297H11.304C11.1659 8.24297 11.054 8.3549 11.054 8.49297C11.054 8.63104 11.1659 8.74297 11.304 8.74297H11.928ZM7.93396 11.153C7.30554 11.1526 6.73387 10.7893 6.4667 10.2206C6.19954 9.65176 6.28497 8.97982 6.68596 8.49597C7.20276 7.89122 7.49116 7.12441 7.50096 6.32897V5.66397H8.08196V7.69197C8.08296 8.6575 8.61473 9.54429 9.46596 9.99997C9.41417 10.4282 9.13944 10.7969 8.74396 10.969L8.31996 11.153H7.93396ZM10.258 16.312C10.258 16.8705 10.7104 17.3234 11.269 17.324H11.27C11.5386 17.3237 11.7962 17.2167 11.986 17.0266C12.1758 16.8364 12.2822 16.5786 12.282 16.31C12.2809 15.7515 11.8275 15.2994 11.269 15.3C10.7104 15.3005 10.258 15.7535 10.258 16.312ZM13.869 13.533H8.40196V12.884C9.26439 13.1103 10.1523 13.2249 11.044 13.225H11.227C12.1207 13.2092 13.0086 13.0785 13.869 12.836V13.533ZM11.217 12.691C12.1155 12.6752 13.0077 12.5369 13.869 12.28L13.865 11.68L13.827 11.664L13.32 11.447C12.7997 11.2223 12.4206 10.7594 12.303 10.205C12.0649 10.2746 11.818 10.31 11.57 10.31H10.702C10.4551 10.3113 10.2093 10.2777 9.97196 10.21C9.85583 10.7673 9.47567 11.2333 8.95296 11.459L8.47796 11.666L8.40096 11.699V12.333C9.31746 12.5874 10.2659 12.708 11.217 12.691ZM13.989 11.153L13.533 10.953C13.1389 10.7841 12.863 10.42 12.807 9.99497C13.6574 9.53875 14.1883 8.65207 14.189 7.68697V5.68697C14.267 5.69197 14.345 5.69497 14.422 5.69497C14.5496 5.69483 14.6771 5.68748 14.804 5.67297V6.36997C14.8041 7.14451 15.0775 7.89418 15.576 8.48697C15.8237 8.77499 15.9602 9.14209 15.961 9.52197C15.9588 9.94268 15.7977 10.347 15.51 10.654C15.2053 10.9768 14.7798 11.158 14.336 11.154L13.989 11.153ZM15.828 18.553H17.435V14.593C17.4342 13.7638 16.9456 13.0128 16.188 12.676L14.402 11.91V13.529H15.473C15.6993 13.5294 15.9148 13.6258 16.0661 13.7941C16.2175 13.9624 16.2904 14.1869 16.267 14.412L15.828 18.553Z" fill="#5C5F8A"/>
<circle cx="11.2689" cy="16.3119" r="0.479" fill="#5C5F8A"/>
</svg>
