<svg width="16" height="18" viewBox="0 0 16 18" fill="none" xmlns="http://www.w3.org/2000/svg">
<path fill-rule="evenodd" clip-rule="evenodd" d="M13.427 10.474V5.946C13.4539 3.93268 12.3953 2.06067 10.656 1.04615C8.9168 0.0316341 6.76617 0.0316341 5.02694 1.04615C3.28771 2.06067 2.22905 3.93268 2.25599 5.946V10.474L0.0219879 15.002H5.10499C5.35591 16.3153 6.50443 17.2652 7.84149 17.2652C9.17854 17.2652 10.3271 16.3153 10.578 15.002H15.665L13.427 10.474ZM7.84199 16.134C7.12893 16.1318 6.49571 15.6777 6.26499 15.003H9.41499C9.18484 15.6765 8.55374 16.1307 7.84199 16.135V16.134ZM3.37399 10.47L1.69799 13.87V13.874H13.987L12.311 10.474V5.946C12.3351 4.33363 11.4887 2.8333 10.0963 2.02007C8.70378 1.20684 6.98119 1.20684 5.58872 2.02007C4.19624 2.8333 3.34987 4.33363 3.37399 5.946V10.47Z" fill="#152358"/>
</svg>
