<svg width="14" height="16" viewBox="0 0 14 16" fill="none" xmlns="http://www.w3.org/2000/svg">
<path fill-rule="evenodd" clip-rule="evenodd" d="M13.99 8.39001V3.46301L13.987 3.46201C13.9865 3.21575 13.8411 2.99286 13.616 2.89301L7.22204 0.0550117C7.06037 -0.0170351 6.87571 -0.0170351 6.71404 0.0550117L0.383038 2.89301C0.158711 2.99345 0.0142422 3.21622 0.0140381 3.46201V8.39001C0.0388933 10.3168 0.755449 12.1705 2.03304 13.613C2.65202 14.3252 3.40321 14.9107 4.24504 15.337C5.09883 15.7706 6.04247 15.9977 7.00004 16C8.34512 15.9947 9.65349 15.5607 10.735 14.761C10.9205 14.6319 11.0217 14.4125 10.9995 14.1876C10.9773 13.9627 10.8352 13.7674 10.628 13.677C10.4208 13.5866 10.181 13.6153 10.001 13.752C9.13277 14.3958 8.08192 14.7461 7.00104 14.752C3.99704 14.752 1.26204 11.72 1.26204 8.39001V3.86601L6.97004 1.30701L12.743 3.86801V8.39101C12.7329 9.57704 12.4033 10.7384 11.789 11.753C11.6642 11.945 11.6545 12.1898 11.7638 12.391C11.8731 12.5922 12.0838 12.7174 12.3127 12.7172C12.5417 12.717 12.7521 12.5914 12.861 12.39C13.5899 11.1823 13.9799 9.80056 13.99 8.39001ZM5.12904 5.58301C5.13014 4.55014 5.96717 3.71311 7.00004 3.71201C8.03369 3.71201 8.87193 4.54936 8.87304 5.58301V6.37401C9.65568 6.46947 10.2443 7.13357 10.245 7.92201V11.041C10.245 11.3856 9.96566 11.665 9.62104 11.665H4.38104C4.03641 11.665 3.75704 11.3856 3.75704 11.041V7.92201C3.7578 7.13357 4.34639 6.46947 5.12904 6.37401V5.58301ZM7.44127 5.14278C7.32425 5.02575 7.16553 4.96001 7.00004 4.96001V4.95901C6.83454 4.95928 6.67593 5.02527 6.5591 5.14248C6.44226 5.25969 6.37677 5.41852 6.37704 5.58401V6.36401H7.62404V5.58401C7.62404 5.41852 7.5583 5.2598 7.44127 5.14278ZM9.00004 7.92301V10.423H5.00404V7.92301C5.00404 7.7507 5.14372 7.61101 5.31604 7.61101H8.68404C8.85596 7.61101 8.99549 7.75009 8.99604 7.92201L9.00004 7.92301Z" fill="#5C5F8A"/>
</svg>
