<svg width="18" height="16" viewBox="0 0 18 16" fill="none" xmlns="http://www.w3.org/2000/svg">
<circle cx="9.40402" cy="8.65197" r="2.738" fill="white"/>
<path fill-rule="evenodd" clip-rule="evenodd" d="M5.27102 1.80698L6.83702 0.0959778H11.97L13.536 1.80698H16.248C17.1918 1.80972 17.9563 2.57416 17.959 3.51798V13.785C17.9563 14.7288 17.1918 15.4932 16.248 15.496H2.55902C1.6152 15.4932 0.850769 14.7288 0.848022 13.785V3.51798C0.850769 2.57416 1.6152 1.80972 2.55902 1.80698H5.27102ZM5.12602 8.65098C5.12602 11.0137 7.04135 12.929 9.40402 12.929C11.7665 12.9284 13.6815 11.0134 13.682 8.65098C13.682 6.2883 11.7667 4.37298 9.40402 4.37298C7.04135 4.37298 5.12602 6.2883 5.12602 8.65098Z" fill="white"/>
</svg>
