<svg width="23" height="23" viewBox="0 0 23 23" fill="none" xmlns="http://www.w3.org/2000/svg">
<path opacity="0.5" fill-rule="evenodd" clip-rule="evenodd" d="M3.5328 11.3036C3.46752 6.03584 7.39526 1.5714 12.6284 0.9651C12.1889 0.91122 11.7465 0.883904 11.3037 0.883301C5.54875 0.883301 0.883423 5.54863 0.883423 11.3036C0.883423 17.0586 5.54875 21.7239 11.3037 21.7239C11.7465 21.724 12.1888 21.6975 12.6284 21.6444C7.39438 21.038 3.46635 16.5722 3.5328 11.3036Z" fill="#868686"/>
<path fill-rule="evenodd" clip-rule="evenodd" d="M3.27485 19.3332C5.40168 21.4605 8.29579 22.6413 11.3037 22.609C14.312 22.6419 17.2067 21.4614 19.3341 19.3341C21.4614 17.2067 22.6419 14.312 22.609 11.3037C22.6413 8.29579 21.4605 5.40169 19.3332 3.27485C17.206 1.14802 14.3116 -0.0322062 11.3037 0.000668853C8.29619 -0.0315882 5.40244 1.14891 3.27567 3.27567C1.14891 5.40243 -0.0315856 8.29619 0.00066864 11.3037C-0.0322011 14.3116 1.14802 17.206 3.27485 19.3332ZM4.53104 4.53132C6.32532 2.73726 8.76651 1.74136 11.3037 1.76838V1.76725C13.8415 1.73961 16.2835 2.73538 18.0783 4.52977C19.8731 6.32415 20.8694 8.76586 20.8424 11.3037C20.8697 13.8415 19.8737 16.2833 18.0791 18.0779C16.2845 19.8725 13.8426 20.8686 11.3048 20.8412C8.76705 20.8686 6.32522 19.8725 4.53062 18.0779C2.73602 16.2833 1.73996 13.8415 1.7673 11.3037C1.74058 8.76645 2.73676 6.32539 4.53104 4.53132Z" fill="#868686"/>
<path fill-rule="evenodd" clip-rule="evenodd" d="M6.88997 7.77279C6.88997 10.2111 8.86658 12.1877 11.3048 12.1877C13.7418 12.1845 15.7166 10.2098 15.7197 7.77279C15.7197 5.33452 13.7431 3.35791 11.3048 3.35791C8.86658 3.35791 6.88997 5.33452 6.88997 7.77279ZM8.85714 6.75889C9.26721 5.76888 10.2333 5.12338 11.3048 5.12338C12.7673 5.12526 13.9524 6.31033 13.9542 7.77277C13.9542 8.84434 13.3087 9.8104 12.3187 10.2205C11.3287 10.6305 10.1892 10.4039 9.43145 9.64616C8.67373 8.88844 8.44706 7.74889 8.85714 6.75889Z" fill="#868686"/>
<path fill-rule="evenodd" clip-rule="evenodd" d="M6.06062 17.1968C5.8434 17.1088 5.67009 16.9381 5.57888 16.7222C5.48767 16.5063 5.48604 16.263 5.57437 16.0459C6.52097 13.7134 8.78701 12.1875 11.3043 12.1875C13.8216 12.1875 16.0876 13.7134 17.0342 16.0459C17.2177 16.498 17 17.0133 16.5479 17.1968C16.0959 17.3803 15.5806 17.1626 15.3971 16.7105C14.7212 15.0439 13.1022 13.9534 11.3037 13.9534C9.50519 13.9534 7.88625 15.0439 7.21035 16.7105C7.12237 16.9278 6.95162 17.1011 6.73573 17.1923C6.51985 17.2835 6.27656 17.2851 6.05948 17.1968H6.06062Z" fill="#868686"/>
</svg>
