<svg width="22" height="22" viewBox="0 0 22 22" fill="none" xmlns="http://www.w3.org/2000/svg">
<path opacity="0.1" fill-rule="evenodd" clip-rule="evenodd" d="M4.68982 20.7226C2.51274 20.5312 0.842835 18.7079 0.842987 16.5224V9.42863C0.842754 8.11356 1.45617 6.87369 2.50169 6.076L8.23558 1.70316C9.74535 0.552072 11.8383 0.552072 13.348 1.70316L13.7354 1.99854C12.6737 1.89293 11.6115 2.19422 10.7634 2.84153L3.94681 8.04259C3.585 8.3185 3.37279 8.74754 3.37308 9.20255V17.6619C3.37165 18.8205 3.84848 19.9284 4.69095 20.7237L4.68982 20.7226Z" fill="#438CEB"/>
<path fill-rule="evenodd" clip-rule="evenodd" d="M16.5268 21.5826H5.05905C2.26587 21.5794 0.00250446 19.3156 0 16.5224V9.4286C0.00596142 7.85305 0.741421 6.36912 1.99158 5.41022L7.72547 1.03283C9.53861 -0.344277 12.0473 -0.344277 13.8604 1.03283L15.6782 2.42114V1.34526C15.6782 0.879689 16.0556 0.502272 16.5211 0.502272C16.9867 0.502272 17.3641 0.879689 17.3641 1.34526V4.12415C17.3641 4.44469 17.1824 4.7375 16.8951 4.87969C16.6078 5.02188 16.2648 4.98885 16.0099 4.79445L12.8379 2.37343C11.6292 1.45536 9.95672 1.45536 8.74796 2.37343L3.01407 6.74627C2.18028 7.38618 1.6902 8.37643 1.68711 9.42746V16.5213C1.68836 18.3834 3.19693 19.893 5.05905 19.8955H16.5268C18.3889 19.8936 19.898 18.3845 19.8999 16.5224V9.4286C19.9029 8.3764 19.4178 7.3823 18.5866 6.73718C18.2164 6.45483 18.1452 5.92583 18.4275 5.55564C18.7099 5.18544 19.2389 5.11423 19.6091 5.39658C20.8573 6.36155 21.5875 7.85085 21.5859 9.4286V16.5224C21.5834 19.3156 19.32 21.5794 16.5268 21.5826Z" fill="#438CEB"/>
<path fill-rule="evenodd" clip-rule="evenodd" d="M11.5048 10.385C11.668 9.991 12.0525 9.73413 12.4789 9.73413H12.4834C13.0639 9.73663 13.5332 10.2079 13.5332 10.7884C13.5332 11.2149 13.2763 11.5993 12.8823 11.7625C12.4884 11.9257 12.0349 11.8355 11.7334 11.5339C11.4318 11.2324 11.3416 10.7789 11.5048 10.385ZM9.10582 11.8428C9.68809 11.8428 10.1601 11.3707 10.1601 10.7885C10.1601 10.2062 9.68809 9.73417 9.10582 9.73417C8.52355 9.73417 8.05152 10.2062 8.05152 10.7885C8.05152 11.3707 8.52355 11.8428 9.10582 11.8428ZM9.10581 13.1072C8.52354 13.1072 8.05151 13.5792 8.05151 14.1615C8.05151 14.7438 8.52354 15.2158 9.10581 15.2158C9.68809 15.2158 10.1601 14.7438 10.1601 14.1615C10.1601 13.5797 9.68878 13.1078 9.10695 13.1072H9.10581ZM11.5048 13.758C11.668 13.3641 12.0525 13.1072 12.4789 13.1072H12.4834C13.0639 13.1097 13.5332 13.581 13.5332 14.1615C13.5332 14.5879 13.2763 14.9724 12.8823 15.1355C12.4884 15.2987 12.0349 15.2085 11.7334 14.907C11.4318 14.6055 11.3416 14.152 11.5048 13.758Z" fill="#438CEB"/>
</svg>
