<svg width="18" height="20" viewBox="0 0 18 20" fill="none" xmlns="http://www.w3.org/2000/svg">
<path fill-rule="evenodd" clip-rule="evenodd" d="M8.95401 0C6.08639 0 3.76172 2.32467 3.76172 5.19229C3.76172 8.05991 6.08639 10.3846 8.95401 10.3846C11.8216 10.3846 14.1463 8.05991 14.1463 5.19229C14.1385 2.3279 11.8184 0.00778649 8.95401 0Z" fill="#5C5F8A"/>
<path fill-rule="evenodd" clip-rule="evenodd" d="M17.8654 14.5348C17.7276 14.1988 17.5525 13.8792 17.3433 13.5823C16.3229 12.0513 14.6977 11.0286 12.876 10.771C12.6447 10.742 12.4107 10.7985 12.2181 10.9299C10.2732 12.3509 7.63255 12.3509 5.68765 10.9299C5.49974 10.7882 5.26159 10.7307 5.02976 10.771C3.20592 11.0227 1.57851 12.0469 0.562495 13.5823C0.357911 13.8821 0.183038 14.2011 0.0403575 14.5348C-0.0204618 14.6741 -0.0121711 14.8338 0.0627349 14.966C0.248369 15.2804 0.452875 15.5833 0.675128 15.873C0.986478 16.2972 1.33603 16.6919 1.7194 17.0523C2.05188 17.3722 2.40042 17.6749 2.76368 17.9593C6.42526 20.6802 11.4372 20.6802 15.0988 17.9593C15.4675 17.6815 15.8164 17.3784 16.1431 17.0523C16.5203 16.686 16.8694 16.2918 17.1874 15.873C17.4121 15.5851 17.6167 15.282 17.7998 14.966C17.9082 14.8494 17.9342 14.6784 17.8654 14.5348Z" fill="#5C5F8A"/>
</svg>
